<svg version="1.1" xmlns="http://www.w3.org/2000/svg" style="display: block;" viewBox="0 0 2048 2048" width="512" height="512">
<path transform="translate(0,0)" fill="rgb(40,45,57)" d="M 1387.34 530.693 C 1403.34 529.685 1427.05 525.132 1439.56 537.213 C 1459.97 556.918 1442.09 585.184 1407.04 582.942 C 1391 582.681 1366.28 588.833 1354.29 575.193 C 1334.14 552.293 1353.91 527.673 1387.34 530.693 z"/>
<path transform="translate(0,0)" fill="rgb(40,45,57)" d="M 617.751 530.693 C 636.177 530.713 666.533 528.395 683.595 531.019 C 714.69 535.802 711.158 569.302 689.118 582.942 C 670.169 586.582 609.016 586.428 601.282 566.968 C 595.108 551.436 602.421 536.057 617.751 530.693 z"/>
<path transform="translate(0,0)" fill="rgb(40,45,57)" d="M 622.83 1472.99 C 640.487 1473 706.846 1470.4 719.033 1474.61 C 743.297 1483 739.356 1515.65 714.063 1525.56 C 696.444 1525.91 628.703 1527.7 617.017 1523.02 C 593.422 1513.56 595.099 1481.59 622.83 1472.99 z"/>
<path transform="translate(0,0)" fill="rgb(40,45,57)" d="M 1337.95 1472.99 C 1345.98 1471.69 1412.54 1471.25 1422.86 1472.21 C 1456.21 1475.31 1458.6 1517.27 1427.32 1525.56 C 1414.01 1527.2 1353.43 1527.22 1339.24 1525.46 C 1309.11 1521.72 1305.03 1478.96 1337.95 1472.99 z"/>
<path transform="translate(0,0)" fill="rgb(40,45,57)" d="M 1559.81 806.13 L 1560.34 805.686 C 1574.31 794.108 1584.12 778.719 1598.71 767.354 C 1601.54 785.644 1612.25 800.247 1625.49 812.517 C 1607.9 826.477 1594.39 844.299 1577.58 858.952 L 1497.07 858.952 C 1497.01 840.302 1496.86 821.647 1497.07 802.998 C 1515.81 808.684 1540.3 807.044 1559.81 806.13 z"/>
<path transform="translate(0,0)" fill="rgb(40,45,57)" d="M 1497.07 1182.99 C 1515.11 1183.03 1559.1 1180.2 1573.86 1182.99 C 1590.58 1196.11 1611.45 1218.53 1625.49 1234.95 C 1607.69 1248.66 1609.32 1265.08 1598.71 1277.97 C 1584.29 1263.95 1570.5 1249.3 1556.41 1234.95 C 1536.74 1234.11 1516.77 1234.87 1497.07 1234.95 L 1497.07 1182.99 z"/>
<path transform="translate(0,0)" fill="rgb(40,45,57)" d="M 477.409 1182.99 L 552.8 1182.99 L 552.8 1234.95 L 499.494 1234.95 C 482.792 1249.2 467.172 1267.2 452.99 1283.92 C 452.076 1283.25 433.157 1245.3 427.108 1235.81 L 426.571 1234.95 C 443.125 1217.39 459.375 1199.05 477.409 1182.99 z"/>
<path transform="translate(0,0)" fill="rgb(40,45,57)" d="M 452.99 763.956 C 466.005 776.576 477.75 790.471 490.819 802.998 C 511.41 804.126 532.174 802.843 552.8 802.998 C 552.721 821.389 551.467 840.656 552.8 858.952 C 533.157 856.889 488.605 857.772 468.035 858.952 C 454.719 843.496 438.134 829.21 426.571 812.517 C 430.257 804.459 436.757 798.598 441.065 791.022 C 445.87 782.573 447.345 771.799 452.99 763.956 z"/>
<path transform="translate(0,0)" fill="rgb(40,45,57)" d="M 393.703 1000.4 C 428.814 1000.61 464.468 998.882 499.494 1000.4 C 509.776 1001.51 519.83 1001.17 530.123 1000.4 C 529.977 1018.07 532.193 1034.39 534.282 1051.86 C 485.338 1050.57 436.015 1051.85 387.031 1051.86 C 394.353 1027.08 390.931 1020.48 393.703 1000.4 z"/>
<path transform="translate(0,0)" fill="rgb(40,45,57)" d="M 753.843 333.952 C 888.67 335.986 911.454 356.863 910.987 494.003 C 893.655 492.664 875.192 494.546 858.13 497.51 C 855.992 467.172 866.74 423.437 843.456 400.369 C 821.323 378.44 781.798 387.371 753.843 386.972 C 757.481 372.67 752.312 336.79 753.843 333.952 z"/>
<path transform="translate(0,0)" fill="rgb(40,45,57)" d="M 858.13 1507.74 C 876.112 1511.61 892.437 1515.74 910.987 1515.09 C 909.998 1528.19 908.71 1542.49 910.987 1555.49 C 911.461 1663.47 886.637 1714.09 770.591 1713.89 L 751.589 1713.84 C 752.963 1692.09 757.058 1688.27 751.589 1662.35 C 762.897 1662.32 774.197 1662.22 785.505 1662.35 C 843.26 1661.14 858.209 1638.21 858.198 1582.87 L 858.13 1542.75 C 860.587 1538.53 858.006 1514.52 858.13 1507.74 z"/>
<path transform="translate(0,0)" fill="rgb(64,96,112)" d="M 1293.89 1662.35 C 1302.81 1640.88 1314.01 1624.77 1336.2 1615.64 C 1432.6 1575.92 1484.46 1720.63 1394.39 1755.3 C 1355.04 1770.45 1312.48 1753.8 1297.1 1713.84 C 1283.22 1714.85 1268.8 1715.84 1254.98 1713.84 C 1268.79 1712.64 1283.17 1714.48 1297.1 1713.84 C 1292.53 1696.69 1289.53 1679.89 1293.89 1662.35 z"/>
<path transform="translate(0,0)" fill="rgb(113,178,181)" d="M 751.589 1713.84 C 748.322 1716.71 745.546 1721.83 742.906 1725.4 C 706.347 1774.76 629.068 1773.32 607.017 1709.53 C 574.015 1614.05 718.598 1564.03 751.589 1662.35 C 763.019 1661.5 774.081 1661.28 785.505 1662.35 C 774.197 1662.22 762.897 1662.32 751.589 1662.35 C 757.058 1688.27 752.963 1692.09 751.589 1713.84 z"/>
<path transform="translate(0,0)" fill="rgb(113,178,181)" d="M 387.031 1051.86 C 324.804 1129.52 230.777 1084.41 239.437 1009.76 C 248.353 932.907 352.328 917.373 386.479 984.319 C 388.95 989.161 389.451 996.81 393.703 1000.4 C 390.931 1020.48 394.353 1027.08 387.031 1051.86 z"/>
<path transform="translate(0,0)" fill="rgb(113,178,181)" d="M 753.843 386.972 C 748.815 392.637 745.116 402.014 740.669 408.473 C 686.043 487.805 555.034 401.693 618.931 314.64 C 649.719 272.695 713.463 278.276 743.064 318.833 C 746.34 323.321 748.482 331.685 753.843 333.952 C 752.312 336.79 757.481 372.67 753.843 386.972 z"/>
<path transform="translate(0,0)" fill="rgb(71,78,95)" d="M 1655.87 1000.4 C 1680.77 924.752 1770.16 921.943 1800.94 985.993 C 1831.95 1050.51 1762.94 1113.12 1700.47 1088.23 C 1681.38 1080.62 1672.43 1067.14 1660.06 1051.86 C 1631.43 1051.88 1602.44 1052.9 1573.86 1051.86 C 1577.84 1050.33 1646.54 1051.86 1655.87 1051.86 C 1654.67 1034.24 1653.96 1017.99 1655.87 1000.4 z"/>
<path transform="translate(0,0)" fill="rgb(71,78,95)" d="M 1293.89 333.952 C 1310.91 308.901 1320.15 291.333 1352.54 284.995 C 1393.17 277.046 1436.18 303.4 1444.1 344.89 C 1461.47 435.928 1330.21 475.949 1295.73 389.504 C 1295.05 387.801 1295.36 388.425 1293.89 386.972 C 1288.49 371.161 1289.81 349.946 1293.89 333.952 z"/>
<path transform="translate(0,0)" fill="rgb(71,78,95)" d="M 1625.49 1234.95 C 1676.12 1185.79 1763.89 1225.81 1762.58 1296.66 C 1761.24 1368.44 1669.93 1403.91 1620.24 1349.95 C 1588.36 1315.32 1605.85 1296.38 1598.71 1277.97 C 1609.32 1265.08 1607.69 1248.66 1625.49 1234.95 z"/>
<path transform="translate(0,0)" fill="rgb(71,78,95)" d="M 426.571 812.517 C 266.171 885.524 246.792 672.1 368.024 666.556 C 408.958 664.684 450.981 698.374 453.371 740.422 C 453.817 748.265 452.137 756.138 452.99 763.956 C 447.345 771.799 445.87 782.573 441.065 791.022 C 436.757 798.598 430.257 804.459 426.571 812.517 z"/>
<path transform="translate(0,0)" fill="rgb(71,78,95)" d="M 1598.71 767.354 C 1583.23 725.692 1615.86 686.372 1653.44 672.631 C 1720.81 647.996 1782.11 725.354 1751.04 788.3 C 1727.04 836.932 1664.98 847.123 1625.49 812.517 C 1612.25 800.247 1601.54 785.644 1598.71 767.354 z"/>
<path transform="translate(0,0)" fill="rgb(71,78,95)" d="M 452.99 1283.92 C 455.481 1404.72 292.778 1405.27 285.767 1298.86 C 280.87 1224.54 371.654 1186.1 426.571 1234.95 L 427.108 1235.81 C 433.157 1245.3 452.076 1283.25 452.99 1283.92 z"/>
<path transform="translate(0,0)" fill="rgb(40,45,57)" d="M 1137.01 494.003 C 1141.95 438.312 1126.17 400.611 1176.42 357.604 C 1206.84 331.571 1255.19 330.963 1293.89 333.952 C 1289.81 349.946 1288.49 371.161 1293.89 386.972 C 1193.02 389.167 1191.25 387.491 1191.68 494.003 C 1264.93 514.248 1316.28 564.949 1318.09 642.756 C 1412.62 655.036 1470.46 775.143 1444.19 860.725 C 1491.47 904.496 1513.71 934.856 1518.56 1000.4 C 1548.13 998.861 1626.93 996.762 1655.87 1000.4 C 1653.96 1017.99 1654.67 1034.24 1655.87 1051.86 C 1646.54 1051.86 1577.84 1050.33 1573.86 1051.86 L 1513.66 1051.86 C 1496.75 1102.64 1474.8 1130.01 1436.62 1166.26 C 1481.31 1278.86 1422.65 1378.33 1311.26 1412.38 C 1281.19 1463.7 1250.73 1489.42 1191.68 1507.74 L 1191.57 1570.8 C 1190.86 1661.27 1208.44 1662.9 1293.89 1662.35 C 1289.53 1679.89 1292.53 1696.69 1297.1 1713.84 C 1283.17 1714.48 1268.79 1712.64 1254.98 1713.84 C 1163.84 1715.68 1136.93 1653.57 1136.94 1572.62 L 1137.01 1515.09 C 1103.19 1510.97 1046.63 1491.13 1044.76 1449.55 C 1045.63 1416.29 1044.8 1382.81 1044.76 1349.52 C 1045.41 1336.32 1044.82 1322.83 1044.82 1309.6 L 1044.76 1024.03 C 1044.11 1008.94 1043.82 993.117 1044.76 978.056 L 1044.75 729.608 C 1044.75 702.512 1056.06 571.183 1032.15 562.847 C 1066.99 520.376 1084.02 508.315 1137.01 494.003 z"/>
<path transform="translate(0,0)" fill="rgb(71,78,95)" d="M 1116.71 594.047 C 1151.83 594.186 1152.48 637.774 1120.21 646.071 C 1085.01 646.331 1081.99 597.732 1116.71 594.047 z"/>
<path transform="translate(0,0)" fill="rgb(71,78,95)" d="M 1116.71 1333.12 C 1148.54 1330.95 1145.62 1371.21 1137.01 1391.52 C 1132.93 1393.9 1128.93 1395.49 1124.51 1397.09 C 1091.25 1398.17 1084.89 1343.27 1116.71 1333.12 z"/>
<path transform="translate(0,0)" fill="rgb(71,78,95)" d="M 1293.89 763.956 C 1314.86 750.509 1389.86 769.334 1369.16 806.956 C 1349.63 842.466 1293.54 768.684 1259.49 830.409 L 1258.79 831.694 C 1253.39 844.296 1257.64 860.652 1249.45 871.692 C 1235.42 890.624 1208.04 876.409 1207.97 855.033 C 1207.82 806.892 1244.08 762.48 1293.89 763.956 z"/>
<path transform="translate(0,0)" fill="rgb(71,78,95)" d="M 1216.86 650.274 C 1267.12 653.902 1231.11 760.267 1153 781.216 C 1108.52 793.145 1106.8 770.627 1106.83 828.107 L 1106.93 878.044 C 1153.21 875.498 1150.69 921.555 1116.71 924.734 C 1097.99 925.027 1066.33 929.259 1062.15 903.624 C 1059.79 889.155 1059.88 801.022 1062.65 787.682 C 1072.15 741.955 1101.07 744.556 1136.31 738.318 C 1213.45 724.665 1173.82 656.985 1216.86 650.274 z"/>
<path transform="translate(0,0)" fill="rgb(71,78,95)" d="M 1153.18 978.056 C 1224.11 892.946 1290.41 972.484 1339.34 913.824 C 1349.11 902.116 1354.13 875.958 1371.2 874.619 C 1419 870.87 1388.19 932.453 1365.55 952.594 C 1324.36 989.234 1264.57 983.974 1211.68 982.001 C 1202.19 992.784 1192.43 1003.16 1182.28 1013.33 C 1192.3 1025.18 1214.45 1041.92 1213.35 1058.37 C 1210.19 1106.03 1139.14 1054.62 1141.19 1024.03 L 1044.76 1024.03 C 1044.11 1008.94 1043.82 993.117 1044.76 978.056 L 1153.18 978.056 z"/>
<path transform="translate(0,0)" fill="rgb(71,78,95)" d="M 1289.5 1036.32 C 1461.49 1026.75 1464.48 1245.11 1332.67 1266.05 C 1251.89 1278.88 1247.03 1218.39 1234.58 1211.84 C 1215.4 1201.75 1206.33 1235.56 1211.68 1255.32 C 1234.22 1278.33 1258.86 1275.87 1275.09 1322.22 C 1312 1427.62 1165.91 1471.33 1182.42 1410.06 C 1188.55 1387.3 1216.05 1397.38 1228.48 1376.44 C 1245.79 1347.28 1221.58 1313.02 1196.18 1298.79 C 1157.24 1279.59 1124.28 1301.64 1084.69 1251.17 C 1059.36 1218.88 1056.45 1147.72 1061.97 1106.23 C 1065.04 1083.15 1096.2 1077.59 1104.37 1100.01 C 1120.83 1145.21 1075.34 1234.65 1161.91 1246.94 C 1164.01 1174.05 1246.19 1129.93 1279.06 1201 C 1306.08 1259.42 1410.98 1194.14 1373.47 1120.52 C 1343.66 1062.01 1288.57 1095.4 1276.96 1070.44 C 1270.37 1056.26 1275.25 1042.51 1289.5 1036.32 z"/>
<path transform="translate(0,0)" fill="rgb(71,78,95)" d="M 858.13 497.51 C 875.192 494.546 893.655 492.664 910.987 494.003 C 958.058 506.122 984.036 523.635 1012.7 562.847 C 1018.03 564.138 1026.88 564.191 1032.15 562.847 C 1056.06 571.183 1044.75 702.512 1044.75 729.608 L 1044.76 978.056 C 1043.82 993.117 1044.11 1008.94 1044.76 1024.03 L 1044.82 1309.6 C 1044.82 1322.83 1045.41 1336.32 1044.76 1349.52 C 1044.8 1382.81 1045.63 1416.29 1044.76 1449.55 C 1042.48 1438.99 1044.65 1422.15 1043.57 1410.09 L 1042.6 1409.3 C 1025.4 1418.8 1025.05 1400.85 1025.4 1433.41 C 1007.45 1405.51 1005.9 1404.25 1001.17 1435.14 L 1000.99 1436.24 C 1000.91 1491.04 959.241 1506.93 910.987 1515.09 C 910.995 1528.52 911.373 1542.07 910.987 1555.49 C 908.71 1542.49 909.998 1528.19 910.987 1515.09 C 892.437 1515.74 876.112 1511.61 858.13 1507.74 C 858.006 1514.52 860.587 1538.53 858.13 1542.75 C 857.475 1531.23 858.123 1519.3 858.13 1507.74 C 806.442 1496.1 767.867 1456.56 741.792 1412.38 C 624.605 1383.19 573.173 1266.56 608.688 1154.79 C 558.332 1115.6 558.908 1103.36 535.163 1053.67 L 534.282 1051.86 C 532.193 1034.39 529.977 1018.07 530.123 1000.4 C 519.83 1001.17 509.776 1001.51 499.494 1000.4 C 509.556 999.745 520.008 1000.35 530.123 1000.4 C 526.465 940.432 559.205 890.591 602.57 852.132 C 575.643 752.974 635.696 650.439 741.792 642.756 C 739.565 569.157 788.821 515.812 858.13 497.51 z"/>
<path transform="translate(0,0)" fill="rgb(113,178,181)" d="M 919.411 594.047 C 957.05 593.6 963.486 630.318 932.878 646.071 C 897.161 649.981 885.033 606.375 919.411 594.047 z"/>
<path transform="translate(0,0)" fill="rgb(113,178,181)" d="M 923.657 1333.12 C 964.446 1331 955.185 1387.95 938.241 1397.09 C 894.748 1402.5 899.082 1339.57 923.657 1333.12 z"/>
<path transform="translate(0,0)" fill="rgb(113,178,181)" d="M 736.564 756.388 C 787.164 748.505 830.781 790.73 840.638 837.539 C 851.949 891.25 800.486 893.967 795.25 852.132 C 792.394 835.846 786.707 820.872 772.967 810.614 C 733.946 781.48 715.814 818.984 700.606 820.894 C 664.816 825.388 657.563 763.667 736.564 756.388 z"/>
<path transform="translate(0,0)" fill="rgb(220,227,228)" d="M 1000.99 1024.03 C 1011.83 1021.68 1032.86 1024.16 1044.76 1024.03 L 1044.64 1321.21 C 1044.59 1330.18 1043.25 1340.77 1044.76 1349.52 C 1044.8 1382.81 1045.63 1416.29 1044.76 1449.55 C 1042.48 1438.99 1044.65 1422.15 1043.57 1410.09 L 1042.6 1409.3 C 1025.4 1418.8 1025.05 1400.85 1025.4 1433.41 C 1007.45 1405.51 1005.9 1404.25 1001.17 1435.14 L 1000.99 1436.24 L 1000.99 1024.03 z"/>
<path transform="translate(0,0)" fill="rgb(113,178,181)" d="M 825.708 650.274 C 848.885 647.418 848.963 664.951 851.148 682.963 C 859.547 752.214 933.348 729.258 961.99 752.362 C 991.263 775.974 984.425 822.785 984.414 856.149 C 984.397 909.535 993.518 922.282 932.878 924.734 C 894.561 919.31 893.741 879.633 938.241 878.044 C 938.218 864.307 940.406 799.255 937.244 791.473 C 932.174 778.993 836.077 799.816 808.583 702.256 C 802.334 680.079 798.911 656.278 825.708 650.274 z"/>
<path transform="translate(0,0)" fill="rgb(113,178,181)" d="M 1012.7 562.847 C 1018.03 564.138 1026.88 564.191 1032.15 562.847 C 1056.06 571.183 1044.75 702.512 1044.75 729.608 L 1044.76 978.056 C 1043.82 993.117 1044.11 1008.94 1044.76 1024.03 L 1044.82 1309.6 C 1044.82 1322.83 1045.41 1336.32 1044.76 1349.52 C 1043.25 1340.77 1044.59 1330.18 1044.64 1321.21 L 1044.76 1024.03 C 1032.86 1024.16 1011.83 1021.68 1000.99 1024.03 C 997.032 1022.63 921.813 1023.98 910.987 1024.03 C 898.559 1042.66 875.524 1073.6 855.851 1081.51 C 844.625 1076.91 832.72 1069.54 830.802 1056.4 C 828.778 1042.53 854.843 1022.22 867.21 1005.06 C 820.412 947.331 729.26 1022.17 668.941 942.555 C 652.219 920.484 640.589 867.85 679.172 876.834 C 700.964 881.908 695.675 920.89 725.243 932.602 C 781.871 955.034 855.551 904.84 902.744 978.056 C 935.473 978.537 968.259 978.098 1000.99 978.056 L 1000.91 624.942 C 1000.89 604.063 994.832 575.265 1012.7 562.847 z"/>
<path transform="translate(0,0)" fill="rgb(113,178,181)" d="M 736.564 1032.41 C 776.059 1029.78 797.328 1054.25 765.202 1081.51 C 638.734 1056.88 647.656 1224.34 737.001 1221.27 C 769.022 1220.17 759.522 1197.93 775.724 1181.71 C 818.229 1139.15 884.701 1181.99 885.055 1246.94 C 934.948 1240.23 941.332 1203.29 941.035 1162.9 L 940.65 1123.45 C 940.46 1101 951.206 1070.77 977.531 1090.38 C 992.474 1101.51 984.606 1129.85 984.338 1145.35 C 982.9 1228.66 979.593 1282.47 877.529 1292.4 C 851.637 1295.17 825.395 1306.36 817.215 1333.45 C 797.649 1398.24 854.771 1386 865.253 1406.87 C 878.54 1433.33 848.008 1445.43 822.148 1434.33 C 739.565 1398.89 756.619 1286.82 841.202 1255.32 C 841.761 1240.55 843.805 1228.78 831.531 1217.93 C 809.607 1198.55 808.445 1223.35 798.059 1236.99 C 766.332 1278.66 701.702 1269.98 665.486 1239.94 C 586.918 1174.76 623.105 1041.63 736.564 1032.41 z"/>
</svg>