<svg width="799" height="997" viewBox="0 0 799 997" fill="none" xmlns="http://www.w3.org/2000/svg">
<g clip-path="url(#clip0_14_2)">
<path d="M479.368 851.492C482.945 854.016 485.138 857.136 487.333 860.879C487.747 861.571 488.161 862.263 488.587 862.976C492.041 869.607 492.82 876.967 490.638 884.175C489.688 886.235 488.627 888.018 487.333 889.879C486.897 890.506 486.462 891.134 486.013 891.781C481.669 897.394 476.248 900.418 469.333 901.879C460.506 902.558 453.288 899.102 446.333 893.879C440.947 888.731 438.515 882.699 438.236 875.293C438.773 866.767 442.046 860.222 448.298 854.422C457.202 847.671 469.365 846.337 479.368 851.492Z" fill="#F2F6F7"/>
<path d="M412.333 22.8785C418.235 27.0663 423.031 31.8994 425.333 38.8785C426.655 47.5107 425.495 54.7669 420.333 61.8785C415.29 67.5664 409.708 71.2079 402.111 72.1559C393.931 72.5066 387.457 69.7029 381.165 64.5778C376.104 59.8835 374.131 56.1141 373.743 49.0614C373.598 40.3063 375.193 34.3719 381.165 27.8903C389.893 19.5752 401.427 16.6177 412.333 22.8785Z" fill="#F2F6F7"/>
<path d="M145.958 503.504C150.967 508.512 154.035 514.498 154.47 521.613C154.094 527.837 151.821 533.515 147.333 537.879C145.056 539.433 142.809 540.619 140.333 541.879C139.57 542.312 138.807 542.745 138.021 543.191C132.429 544.621 127.523 543.946 122.345 541.422C116.763 538.028 112.765 535.247 110.661 528.828C109.493 521.887 110.089 515.182 113.333 508.879C121.764 497.37 134.113 496.171 145.958 503.504Z" fill="#F2F6F7"/>
<path d="M298.993 64.109C303.069 67.1915 305.157 71.3407 307.333 75.8785C307.828 76.8685 307.828 76.8685 308.333 77.8785C309.012 85.8706 308.045 90.8107 303.583 97.5035C299.39 101.929 294.643 104.534 288.509 105.047C280.856 104.456 273.127 99.8991 268.021 94.3785C264.836 89.6607 264.694 84.4275 265.333 78.8785C267.411 71.9099 270.861 67.2498 276.896 63.1285C284.478 59.2402 291.657 60.1867 298.993 64.109Z" fill="#F2F6F7"/>
<path d="M685.786 237.754C691.572 241.11 695.001 245.834 697.646 251.879C699.357 259.347 697.969 265.248 694.333 271.879C690.563 276.452 684.996 279.404 679.134 280.164C671.48 280.463 665.47 277.808 659.849 272.668C655.932 268.045 655.041 262.738 655.396 256.816C656.32 250.484 658.441 245.252 663.333 241.004C670.115 236.2 677.712 234.874 685.786 237.754Z" fill="#F2F6F7"/>
<path d="M616.341 169.382C622.01 173.64 626.422 181.83 627.521 188.754C627.629 193.004 626.376 196.144 624.333 199.879C623.776 200.91 623.219 201.941 622.646 203.004C618.95 207.598 615.374 210.366 609.462 211.363C602.275 211.693 596.998 210.357 591.333 205.879C586.883 201.672 584.614 198.459 584.13 192.293C583.992 184.074 585.675 179.022 591.333 172.879C598.599 167.429 607.707 165.759 616.341 169.382Z" fill="#F2F6F7"/>
<path d="M132.021 237.816C137.487 241.22 141.975 246.831 144.333 252.879C144.971 258.617 145.181 264.013 142.771 269.316C137.032 275.349 132.573 279.393 123.958 280.191C115.236 279.439 109.108 275.462 103.333 268.879C101.104 263.076 101.717 255.858 103.521 250.066C110.175 238.363 119.034 234.514 132.021 237.816Z" fill="#F2F6F7"/>
<path d="M609.021 85.0035C615.528 90.2797 619.722 96.2181 620.833 104.691C620.573 111.048 617.319 116.893 612.896 121.316C612.05 121.832 611.204 122.347 610.333 122.879C609.426 123.456 608.518 124.034 607.583 124.629C602.049 126.757 597.86 126.814 592.263 124.742C586.361 121.979 581.788 119.478 578.333 113.879C577.521 111.441 577.521 111.441 577.333 108.879C577.23 107.827 577.127 106.775 577.021 105.691C577.563 99.0778 579.584 93.0565 584.521 88.441C592.007 82.8222 600.321 81.3616 609.021 85.0035Z" fill="#F2F6F7"/>
<path d="M205.771 85.0035C211.577 89.2523 215.437 94.9304 217.333 101.879C217.735 108.229 216.55 112.996 212.333 117.879C207.951 122.118 203.69 126.09 197.333 126.379C190.602 126.222 183.465 123.033 178.716 118.25C174.78 112.518 174.83 106.562 175.333 99.8785C176.529 94.2751 178.792 90.4906 183.333 86.8785C190.213 82.8067 198.205 82.5276 205.771 85.0035Z" fill="#F2F6F7"/>
<path fill-rule="evenodd" clip-rule="evenodd" d="M798.04 486.097C796.199 474.284 788.598 464.528 779.146 457.503C760.481 445.898 735.211 452.344 722.083 468.941C714.747 479.642 712.464 492.156 714.689 504.918C718.673 517.039 724.306 524.834 735.048 531.523L737.333 532.878C745.432 538.142 754.979 537.722 764.333 536.878C774.578 534.701 783.579 529.01 790.2 521.023C797.692 509.978 799.436 499.352 798.04 486.097ZM777.333 490.879C775.191 484.095 771.384 479.13 765.708 474.941C756.878 472.161 749.37 473.155 742.271 478.941C736.963 483.695 735.609 488.622 735.021 495.566C735.465 500.273 735.926 503.296 739.154 506.925C744.55 512.077 749.817 515.653 757.431 515.964C763.64 515.51 768.282 512.987 772.583 508.566C776.332 502.808 778.306 497.705 777.333 490.879Z" fill="#F2F6F7"/>
<path d="M673.208 527.441C677.767 531.871 680.44 537.514 680.833 543.879C680.388 550.88 677.429 556.233 672.271 560.879C667.78 564.602 663.903 565.343 658.169 565.293C651.824 564.366 646.407 560.8 641.771 556.504C638.468 550.473 637.548 544.554 639.333 537.879C641.655 531.579 644.613 527.691 650.771 524.691C658.558 522.222 666.5 522.248 673.208 527.441Z" fill="#F2F6F7"/>
<path d="M603.587 328.191C608.998 332.626 613.429 338.179 614.775 345.172C615.073 350.757 613.704 355.407 610.333 359.879C605.657 364.365 600.683 367.621 594.091 368.011C586.738 367.805 581.758 364.687 576.333 359.879C572.184 354.827 571.883 350.347 572.333 343.879C573.388 337.868 575.8 333.865 580.333 329.879C587.29 325.762 596.303 323.949 603.587 328.191Z" fill="#F2F6F7"/>
<path d="M67.7082 345.629C68.8297 345.603 69.9511 345.577 71.1066 345.55C77.4494 346.195 80.9031 350.096 84.8136 354.773C88.3408 359.66 88.8555 364.736 87.9933 370.543C86.3211 376.46 82.6208 381.3 77.7082 384.941C72.487 387.796 67.1054 387.949 61.3332 386.879C55.3922 384.257 51.0589 380.118 47.3332 374.879C45.2823 368.726 45.844 362.607 48.3488 356.664C52.6196 348.919 59.2711 345.744 67.7082 345.629Z" fill="#F2F6F7"/>
<path d="M743.146 346.816C748.959 350.578 753.233 356.258 755.333 362.879C755.782 369.935 753.825 375.489 749.333 380.879C744.784 385.461 741.016 387.036 734.583 387.191C727.267 387.12 723.89 385.265 718.521 380.254C717.799 379.47 717.077 378.686 716.333 377.879C715.673 377.219 715.013 376.559 714.333 375.879C712.532 370.393 712.763 364.791 714.396 359.316C721.301 347.064 729.292 343.409 743.146 346.816Z" fill="#F2F6F7"/>
<path d="M157.72 416.871C163.201 420.566 166.369 425.627 168.333 431.879C169.504 438.691 168.583 444.077 164.9 449.933C161.421 454.254 156.983 457.366 151.388 458.152C143.471 458.521 138.366 455.396 132.396 450.441C128.119 445.128 127.65 439.466 128.333 432.879C129.646 425.862 133.632 421.927 139.333 417.879C144.716 414.571 151.937 414.467 157.72 416.871Z" fill="#F2F6F7"/>
<path fill-rule="evenodd" clip-rule="evenodd" d="M84.6457 494.129C84.1748 480.415 77.4919 468.629 67.6144 459.246C49.9792 445.354 24.2016 451.746 9.58317 466.316C0.278475 477.234 -0.713268 490.17 0.333175 503.879C2.36309 514.494 8.86303 522.433 17.0832 529.129C28.133 536.751 39.1785 538.366 52.3332 536.879C60.7102 534.729 68.7181 529.623 73.9972 522.742L75.3332 520.879C81.7132 512.754 84.402 504.476 84.6457 494.129ZM62.6496 493.297C61.7737 486.603 58.2423 481.338 53.3332 476.879C45.4369 472.345 35.7315 472.272 28.6027 478.355C23.9067 483.434 21.5423 488.742 21.0832 495.629C21.5526 501.73 23.2573 504.495 27.3918 508.972C32.2361 513.729 35.7139 515.1 42.5832 515.191C49.7789 515.018 53.3554 512.879 58.3332 507.879C62.1271 503.357 62.9234 499.136 62.6496 493.297Z" fill="#F2F6F7"/>
<path d="M411.642 936.812C417.399 943.076 421.054 948.592 420.739 957.285C419.792 963.337 416.751 968.223 411.896 971.941C406.114 975.073 399.683 974.909 393.333 973.879C387.896 971.556 383.503 967.897 380.333 962.879C378.368 956.484 378.33 950.077 381.396 944.066C384.82 938.621 389.034 935.413 395.146 933.441C401.176 932.275 406.832 932.784 411.642 936.812Z" fill="#F2F6F7"/>
<path fill-rule="evenodd" clip-rule="evenodd" d="M360.443 364.566C367.756 369.643 371.719 377.819 373.97 386.269C375.112 393.295 372.957 398.872 369.646 405.003C363.986 412.04 360.388 414.615 351.333 416.878V586.878L356.333 588.878C365.706 594.318 372.812 604.486 375.92 614.831C378.314 626.69 377.254 640.012 370.825 650.289C365.286 658.005 357.389 664.715 348.333 667.878C346.589 668.133 344.836 668.333 343.079 668.48L340.378 668.717L338.333 668.878C338.232 677.12 338.185 685.359 338.206 693.601C338.214 697.429 338.204 701.255 338.152 705.082C338.101 708.779 338.1 712.473 338.132 716.17C338.136 717.577 338.122 718.985 338.091 720.392C338 724.732 338.058 728.712 339.333 732.878C342.342 735.805 345.521 737.234 349.333 738.878C350.826 740.206 351.527 740.829 352.183 741.495C352.762 742.083 353.307 742.706 354.333 743.878L356.771 746.378C364.556 755.869 367.405 767.871 366.333 779.878C364.545 788.841 361.163 795.876 355.333 802.878L353.677 804.875C348.194 810.888 340.511 815.342 332.294 816.055C319.765 816.412 315.512 816.533 311.765 815.215C309.839 814.537 308.047 813.48 305.333 811.878L303.021 810.593C294.361 805.342 287.768 798.042 284.185 788.511C280.992 774.892 282.515 761.516 289.755 749.523C296.292 740.156 304.689 735.389 315.333 731.878C315.496 723.507 315.62 715.137 315.696 706.765C315.732 702.876 315.782 698.99 315.861 695.102C315.938 691.348 315.979 687.595 315.997 683.84C316.01 682.41 316.035 680.98 316.073 679.551C316.307 675.573 316.421 673.619 316.119 671.732C315.827 669.911 315.146 668.152 313.808 664.695C312.05 663.171 310.355 662.015 308.333 660.878C302.765 656.351 298.853 652.153 295.333 645.878L293.333 642.878C289.642 630.46 290.584 617.498 296.708 606.003C303.134 595.507 311.631 589.582 323.066 585.252L326.62 583.901L329.333 582.878C329.38 560.913 329.415 538.947 329.437 516.981C329.447 506.782 329.461 496.584 329.484 486.385C329.504 477.497 329.517 468.609 329.521 459.721C329.524 455.014 329.53 450.307 329.545 445.6C329.558 441.171 329.562 436.742 329.559 432.313C329.56 430.686 329.564 429.059 329.572 427.432C329.582 425.213 329.579 422.994 329.574 420.775L329.579 417.01C329.344 414.022 329.002 412.337 327.333 409.878L325.458 409.003C321.523 406.92 319.809 403.1 318.239 399.07C316.042 391.332 316.288 383.03 320.091 375.871L321.333 373.878L322.513 371.949C330.659 360.717 348.557 358.227 360.443 364.566ZM345.333 607.879C350.395 611.042 353.321 615.33 355.333 620.879C356.312 627.3 356.062 633.427 352.743 639.125C349.453 643.217 345.299 646.223 340.333 647.879C331.6 648.739 326.024 647.438 319.099 642.183C315.183 638.753 312.888 636.07 312.208 630.816C312.07 622.601 314.792 616.791 320.333 610.879C327.363 604.383 336.782 603.887 345.333 607.879ZM345.47 774.644C345.021 767.206 341.622 762.272 336.583 757.004C331.912 753.95 327.297 752.667 321.708 753.066L319.333 753.879C317.639 754.453 316.765 754.75 315.917 755.108C315.013 755.491 314.139 755.943 312.333 756.879C308.571 760.641 305.595 764.66 304.333 769.879C303.647 775.416 303.186 780.939 306.271 785.816C310.468 790.587 315.24 793.452 321.56 794.324C328.338 794.558 332.964 794.105 338.333 789.879C342.52 785.692 345.106 780.589 345.47 774.644Z" fill="#F2F6F7"/>
<path d="M698.333 628.879C704.28 631.474 708.661 636.938 711.189 642.894C712.544 647.516 713.17 652.332 711.333 656.879C707.559 662.149 703.732 667.025 697.333 668.879C691.017 669.796 685.765 669.69 680.333 666.129C672.822 660.346 672.822 660.346 671.333 655.879C670.663 648.462 670.715 641.984 675.333 635.879C682.175 628.726 688.749 627.945 698.333 628.879Z" fill="#F2F6F7"/>
<path fill-rule="evenodd" clip-rule="evenodd" d="M438.333 19.8786C434.585 13.7894 430.075 9.59937 424.157 5.57777C408.158 -4.04834 385.255 -0.347597 370.493 10.0661C358.747 19.9219 352.876 34.2386 351.497 49.1871L351.271 51.9411C350.373 62.4186 349.976 72.9038 349.721 83.4135L349.675 85.4061L349.579 89.2223C349.269 103.701 345.944 117.302 336.064 128.25C328.843 135.046 320.736 139.099 310.858 139.498L308.021 139.566C304.912 139.667 301.805 139.756 298.696 139.82L295.333 139.879C291.748 139.945 288.164 140.003 284.579 140.04L281.083 140.066L277.676 140.106L274.505 140.109L271.696 140.121C268.497 139.793 266.851 138.484 264.79 136.074C263.649 134.637 262.467 133.232 261.255 131.855C256.559 127.025 252.311 125.718 245.569 125.359C235.743 125.158 228.774 127.521 221.458 134.129C215.494 140.685 213.664 147.226 214.021 156.023C214.884 163.91 218.293 169.712 224.333 174.879C231.579 179.524 238.709 182.61 247.384 181.652C255.233 180.097 260.617 176.28 265.146 169.754C266.192 168.118 267.253 166.492 268.333 164.879C270.055 162.702 270.873 161.957 273.648 161.487L276.4 161.462L279.524 161.412L282.896 161.402C286.468 161.353 290.039 161.307 293.612 161.28C297.318 161.254 301.025 161.217 304.732 161.175C307.078 161.146 309.424 161.118 311.771 161.089L315.142 161.067L318.267 161.036C327.792 160.968 338.133 155.178 345.208 148.941L348.333 145.879V161.879C347.615 162.238 347.13 162.48 346.671 162.766C345.715 163.359 344.874 164.137 342.282 166.535C341.895 166.896 341.508 167.258 341.121 167.619C338.29 170.265 335.458 172.911 332.52 175.438C326.655 180.459 321.251 185.883 315.833 191.379C315.504 191.713 315.174 192.047 314.845 192.382C310.353 196.941 305.876 201.487 301.029 205.675C298.731 207.643 296.526 209.63 294.419 211.8L291.708 214.629C273.442 233.156 253.219 244.325 226.837 244.699L224.404 244.726C220.095 244.792 215.788 244.855 211.479 244.881C207.006 244.904 202.537 244.955 198.066 245.079C194.547 245.177 191.031 245.24 187.51 245.262C185.829 245.266 184.147 245.275 182.466 245.289L182.259 245.296C177.796 245.454 173.368 245.61 168.926 245.05C164.523 243.614 162.703 241.478 160.512 237.572C158.452 233.228 156.732 229.816 153.333 226.379C145.827 219.402 138.382 215.636 128.038 215.605L125.396 215.629C118.296 215.565 112.532 216.316 105.814 218.816C97.0922 222.857 88.9801 229.597 85.1379 238.617L84.3332 240.879C80.4699 251.618 79.3228 259.564 82.0246 270.738C85.1302 281.043 90.5306 288.988 99.884 294.562L102.333 295.879C111.475 301.045 120.002 301.772 130.285 301.111C138.796 300.144 148.55 295.58 154.208 289.004L156.333 285.879C159.218 282.094 161.784 278.566 163.27 274.002L164.013 271.078L164.778 268.116L165.333 265.879C174.478 265.9 183.622 265.917 192.767 265.927L193.87 265.929C198.168 265.933 202.466 265.938 206.763 265.947C211.33 265.958 215.897 265.968 220.464 265.972C222.204 265.973 223.945 265.974 225.685 265.976C228.184 265.984 230.684 265.992 233.184 265.993L235.492 265.992C245.714 266.044 255.813 264.303 265.021 259.691L268.333 257.879L268.47 260.532C265.996 268.153 264.741 272.02 262.642 275.357C260.479 278.796 257.421 281.671 251.212 287.508C250.04 288.632 248.875 289.764 247.716 290.901C242.652 295.894 237.585 300.868 232.185 305.5C230.828 306.663 229.921 307.441 229.035 308.243C227.247 309.862 225.547 311.578 220.417 316.759C217.522 319.694 214.609 322.61 211.693 325.523C209.906 327.308 208.119 329.093 206.333 330.879L204.374 332.857C191.543 345.752 178.134 351.085 159.951 351.131C157.994 351.12 156.037 351.109 154.079 351.107C151.305 351.108 148.53 351.106 145.755 351.095C142.169 351.077 138.583 351.064 134.997 351.064C132.179 351.064 129.361 351.063 126.543 351.057C125.202 351.053 123.862 351.05 122.521 351.047L118.604 351.043L115.001 351.024C113.111 351.017 111.22 350.98 109.333 350.879C107.55 349.464 106.646 348.747 105.902 347.889C105.136 347.006 104.541 345.974 103.333 343.879C99.1312 337.125 95.5264 332.356 88.5832 328.254C76.9354 323.326 64.7414 321.624 52.5364 325.968L50.3332 326.879C41.8147 330.376 35.5543 335.493 30.6887 343.359C24.865 354.184 22.9085 367.874 26.3332 379.879C30.9579 391.91 36.7943 398.917 48.3332 404.879C59.2079 409.421 69.7859 410.673 81.0324 406.781L83.3332 405.879C87.0822 404.423 90.2907 402.61 93.5832 400.3C100.876 394.437 106.868 386.164 107.915 376.67L108.333 372.879C116.174 372.9 124.015 372.917 131.857 372.927L132.803 372.929C136.489 372.933 140.176 372.938 143.863 372.947C147.778 372.958 151.694 372.968 155.61 372.972C157.104 372.973 158.597 372.974 160.091 372.976C162.234 372.984 164.376 372.992 166.519 372.993L168.502 372.992L172.068 372.999C197.072 372.078 216.046 353.522 232.541 336.767C234.004 335.279 235.46 333.778 236.918 332.277C242.306 326.725 247.712 321.154 253.568 316.121C257.732 312.592 261.625 308.808 265.515 304.98C266.474 304.029 267.435 303.078 268.396 302.129C282.2 288.745 291.456 275.46 291.896 255.816C291.892 255.148 291.876 254.486 291.859 253.831C291.769 250.21 291.684 246.807 293.861 243.695C295.254 242.672 296.633 241.627 297.957 240.515L299.833 238.879C301.241 237.656 302.248 236.781 303.236 235.885C305.714 233.636 308.068 231.251 316.333 222.879C317.903 221.288 319.474 219.699 321.048 218.111L322.583 216.566C325.949 213.174 329.375 209.909 333.021 206.816C334.056 205.974 334.523 205.594 334.97 205.19C335.337 204.859 335.69 204.511 336.333 203.879L337.333 200.879H339.333L341.646 198.566C344.118 196.094 346.327 194.596 349.333 192.879C349.277 202.992 349.21 213.105 349.124 223.218L349.113 224.482C349.072 229.23 349.03 233.977 349.003 238.725C348.977 243.775 348.947 248.825 348.899 253.875C348.88 255.809 348.862 257.742 348.845 259.675C348.783 278.556 347.784 293.786 333.789 307.932L331.711 309.971C329.374 312.314 327.035 314.654 324.683 316.982C323.005 318.642 321.329 320.306 319.657 321.973C316.155 325.472 312.65 328.968 309.136 332.456C304.587 336.966 300.04 341.478 295.505 346.002C291.098 350.399 286.689 354.794 282.277 359.186L279.747 361.703C277.322 364.118 274.895 366.533 272.465 368.944L270.215 371.174C266.259 375.114 262.278 378.972 258.067 382.639C254.876 385.374 251.868 388.239 248.906 391.219L247.052 393.097C244.31 395.855 241.57 398.615 238.833 401.379C236.76 403.472 234.685 405.565 232.608 407.655L230.614 409.66C226.858 413.467 223.061 417.167 219.032 420.688C216.229 423.103 213.481 425.542 210.833 428.129C194.675 444.51 189.736 462.131 189.756 484.548C189.758 486.439 189.753 488.33 189.74 490.221C189.699 495.222 189.669 500.222 189.659 505.223C189.644 513.379 189.595 521.535 189.543 529.691C189.525 532.561 189.509 535.43 189.502 538.3C189.498 540.104 189.493 541.908 189.486 543.713L189.475 546.244C189.477 549.126 189.468 552 189.333 554.879C187.657 569.117 180.533 579.705 169.771 588.941C168.636 589.846 168.144 590.238 167.67 590.652C167.307 590.968 166.955 591.297 166.333 591.879V593.879C165.362 593.879 164.862 593.879 164.42 594.038C163.952 594.206 163.548 594.554 162.717 595.268L160.814 597.203L158.714 599.322L156.521 601.566C155.097 603.007 153.674 604.449 152.251 605.89C149.294 608.903 146.324 611.9 143.333 614.879C142.866 614.631 142.397 614.382 141.928 614.132C135.874 610.911 129.603 607.575 122.811 606.467C110.629 605.528 98.825 607.816 89.1223 615.668C81.3322 623.159 75.0933 631.81 74.1692 642.836C73.4254 656.418 75.4556 666.787 84.4582 677.379C94.7554 686.333 102.864 691.062 116.646 691.379C127.922 691.319 137.279 687.97 145.404 679.964L147.333 677.879C148.471 676.68 149.577 675.451 150.646 674.191C156.802 665.48 158.342 655.083 156.896 644.754C156.25 641.454 155.649 638.228 155.333 634.879C156.278 633.313 156.743 632.541 157.333 631.879C157.906 631.235 158.596 630.695 159.958 629.629C167.18 623.745 173.959 617.461 180.581 610.914C181.685 609.818 182.79 608.723 183.896 607.629C186.095 605.488 188.291 603.345 190.462 601.175C205.96 585.47 210.773 567.182 210.774 545.688C210.775 544.07 210.781 542.452 210.792 540.833C210.831 536.526 210.861 532.22 210.877 527.913C210.901 520.938 210.933 513.964 210.988 506.989C211.008 504.531 211.024 502.072 211.028 499.614C211.038 491.868 211.209 484.196 211.988 476.484L212.247 474.094C213.674 460.84 218.626 451.632 228.771 442.941C229.926 442.013 230.433 441.607 230.922 441.179C231.303 440.844 231.674 440.497 232.333 439.879V437.879C233.275 437.879 233.773 437.879 234.217 437.723C234.717 437.549 235.147 437.179 236.062 436.393L238.18 434.266L240.612 431.837L243.287 429.136L244.258 428.164C246.376 426.043 248.493 423.923 250.605 421.798C253.798 418.583 256.995 415.371 260.195 412.164C265.274 407.076 270.349 401.983 275.42 396.887C284.543 387.721 293.669 378.558 302.802 369.402C306.019 366.176 309.236 362.95 312.448 359.719C322.161 349.949 331.876 340.196 341.952 330.797L342.48 330.31C344.782 328.185 347.084 326.06 349.333 323.879C367.421 304.888 370.671 283.084 370.572 258.002C370.564 256.146 370.56 254.29 370.559 252.434C370.562 247.349 370.558 242.264 370.545 237.179C370.53 231.788 370.524 226.397 370.521 221.006C370.517 210.815 370.504 200.625 370.484 190.434C370.461 178.748 370.447 167.062 370.437 155.376C370.416 131.211 370.383 107.047 370.339 82.882L370.333 79.8786C371.91 80.6766 373.487 81.4741 375.066 82.2692L377.021 83.2536C379.449 84.484 381.885 85.6879 384.333 86.8786L389.333 88.8786V911.879C378.208 917.441 369.661 922.255 363.333 932.879C357.709 943.386 356.047 956.269 359.333 967.879C364.045 980.059 372.535 987.635 384.333 992.879C393.661 996.837 405.072 997.8 414.595 993.968C425.551 988.764 433.829 981.176 438.587 969.91C442.294 959.267 443.323 948.456 438.466 938.047L437.333 935.879C432.534 926.299 426.899 918.959 417.083 914.441C415.714 913.913 415.056 913.659 414.444 913.321C413.876 913.007 413.349 912.622 412.333 911.879C411.763 909.046 411.477 907.627 411.335 906.194C411.192 904.754 411.195 903.3 411.2 900.385L411.207 897.786C411.203 894.827 411.2 891.868 411.203 888.908C411.205 886.723 411.206 884.538 411.205 882.353C411.199 876.329 411.198 870.305 411.201 864.281C411.204 857.694 411.203 851.108 411.2 844.521C411.195 831.62 411.194 818.72 411.197 805.819C411.199 794.474 411.201 783.128 411.2 771.783L411.198 760.364C411.195 731.763 411.198 703.162 411.203 674.562C411.208 649.085 411.208 623.608 411.203 598.131C411.198 569.47 411.195 540.81 411.198 512.149L411.199 500.714C411.201 489.36 411.2 478.006 411.197 466.652C411.195 453.68 411.194 440.709 411.199 427.737L411.2 427.391C411.202 421.536 411.204 415.682 411.202 409.828C411.199 403.649 411.197 397.47 411.202 391.291C411.203 389.054 411.205 386.817 411.206 384.58V384.425C411.203 381.365 411.199 378.305 411.203 375.245L411.207 372.468L411.2 369.84C411.202 369.29 411.167 368.732 411.133 368.176C411.012 366.235 410.892 364.32 412.333 362.879C420 369.906 427.821 374.635 438.047 376.603L440.763 377.093C443.376 377.59 445.99 378.086 448.606 378.566L450.333 378.879C450.32 426.694 450.284 474.51 450.212 522.325C450.203 528.088 450.194 533.85 450.186 539.613L450.181 543.094C450.153 561.733 450.14 580.372 450.138 599.012C450.135 618.198 450.118 637.385 450.079 656.571C450.055 668.397 450.037 680.223 450.047 692.049C450.054 700.229 450.048 708.408 450.024 716.588L450.019 718.105C450.005 722.32 449.99 726.534 449.998 730.749C450.012 735.128 450.02 739.506 449.998 743.884C449.987 745.476 449.979 747.069 449.972 748.661C449.989 750.862 450.006 753.062 449.987 755.263L449.964 757.251C449.96 761.712 449.899 763.238 446.907 766.625L444.333 768.879C440.865 774.021 440.795 778.869 441.333 784.879C443.41 791.109 445.95 793.953 451.583 797.254C457.506 800.27 461.459 800.893 467.958 799.191C474.168 795.759 478.246 791.734 480.333 784.879C480.93 779.847 481.192 776.167 478.333 771.879L476.861 769.898L475.271 767.691C470.858 757.215 470.858 757.215 471.204 745.497L471.213 741.806C471.21 737.618 471.208 733.43 471.214 729.242C471.219 725.381 471.22 721.52 471.22 717.659C471.218 710.967 471.22 704.275 471.225 697.583C471.233 687.823 471.238 678.064 471.239 668.304C471.241 652.489 471.247 636.673 471.256 620.857C471.265 605.443 471.273 590.029 471.277 574.615L471.282 557.386C471.293 516.884 471.31 476.381 471.333 435.879C472.891 436.864 473.673 437.359 474.391 437.933C475.113 438.512 475.77 439.172 477.089 440.496L478.611 442.023C479.694 443.104 480.776 444.186 481.859 445.267C483.548 446.963 485.237 448.658 486.932 450.347C489.676 453.08 492.411 455.821 495.128 458.581C511.508 475.345 518.842 487.59 518.65 511.233C518.634 513.162 518.623 515.091 518.618 517.019C518.61 522.09 518.592 527.16 518.56 532.231C518.525 537.479 518.504 542.727 518.489 547.975C518.456 559.277 518.403 570.578 518.333 581.879C517.842 582.155 517.352 582.426 516.864 582.695C514.278 584.125 511.76 585.517 509.478 587.449C503.282 594.68 500.512 602.367 500.892 611.922C501.943 618.965 505.095 624.087 510.396 628.754C510.962 629.2 511.537 629.631 512.108 630.058C515.148 632.334 518.062 634.517 518.848 638.465L518.867 641.426L518.915 644.793L518.9 648.414C518.908 650.063 518.915 651.713 518.921 653.363C518.924 654.239 518.927 655.114 518.929 655.99C518.926 656.547 518.923 657.105 518.92 657.662C518.905 660.424 518.89 663.185 518.91 665.946C518.943 669.215 518.968 672.482 518.969 675.751L518.962 679.476L519.002 683.103L518.964 686.461L518.961 689.419C518.767 690.704 518.665 691.376 518.326 691.891C517.954 692.454 517.298 692.829 515.925 693.616C511.492 695.776 508.314 698.983 505.333 702.879C502.072 709.728 500.437 716.315 501.654 723.867C502.956 730.152 505.514 734.756 510.833 738.504L512.552 739.605L514.333 740.879L516.418 742.318C517.631 744.568 518.244 745.707 518.548 746.924C518.859 748.171 518.843 749.5 518.812 752.191L518.759 755.121C518.749 758.249 518.732 761.376 518.69 764.504C518.661 766.667 518.64 768.829 518.628 770.992C518.621 773.105 518.61 775.218 518.596 777.331L518.572 780.371C518.565 781.164 518.565 781.961 518.565 782.759C518.564 787.5 518.562 792.299 517.333 796.879L514.646 798.316C512.542 799.309 511.774 799.671 511.087 800.148C510.692 800.422 510.323 800.735 509.743 801.226C504.481 806.89 501.203 814.279 500.958 822.066C501.668 829.287 502.685 834.82 508.333 839.879C516.776 846.469 524.508 849.925 535.333 848.879L537.333 847.879C540.474 846.746 543.424 845.529 546.333 843.879C552.114 838.908 556.74 832.148 557.607 824.449C557.778 814.028 553.411 806.289 546.333 798.879L543.771 796.964C540.71 791.914 540.71 791.914 540.638 785.918L540.669 782.777C540.659 780.574 540.653 778.371 540.65 776.168C540.682 772.699 540.708 769.234 540.681 765.765C540.661 763.497 540.651 761.229 540.655 758.961L540.669 755.714C540.641 752.793 540.667 749.919 540.864 747.004C541.001 745.929 541.076 745.337 541.346 744.853C541.677 744.259 542.3 743.827 543.687 742.865C544.791 742.454 545.435 742.214 546.028 741.883C546.856 741.422 547.585 740.783 549.333 739.254C554.631 733.599 557.553 728.787 557.818 720.829L557.833 718.691C557.87 714.696 557.56 711.415 555.978 707.679L554.333 704.879C554.185 704.622 554.037 704.365 553.889 704.108C551.883 700.618 549.836 697.058 546.646 694.554C545.2 693.675 543.766 692.778 542.333 691.879C541.516 689.678 541.328 687.768 541.213 685.423L541.22 682.651V679.497L541.236 676.113C541.24 672.529 541.246 668.944 541.258 665.36C541.266 662.865 541.273 660.37 541.278 657.876C541.29 650.543 541.308 643.211 541.333 635.879C551.198 640.522 556.219 642.885 560.728 645.991C565.402 649.21 569.526 653.228 577.923 661.41C588.093 671.827 590.766 681.542 590.836 695.868C590.842 697.287 590.853 698.706 590.87 700.124C590.92 703.859 590.961 707.594 590.987 711.328C591.014 715.193 591.053 719.056 591.098 722.92C591.195 731.239 591.272 739.559 591.333 747.879H589.333C584.606 750.975 581.366 755.166 578.333 759.879C574.62 767.696 574.87 775.071 576.95 783.328C579.661 790.929 585.531 794.298 592.376 797.976C598.543 800.71 605.953 801.005 612.333 798.879C621.039 794.693 626.408 788.441 629.685 779.339C631.282 773.278 630.688 767.698 627.986 762.074L626.271 759.004C626.183 758.842 626.097 758.683 626.011 758.524C624.503 755.738 623.24 753.405 620.395 751.754L620.393 751.753C618.191 750.579 618.191 750.579 616.099 748.961C613.201 743.44 613.201 743.44 613.3 736.951C613.335 734.963 613.368 732.974 613.361 730.985C613.329 727.448 613.324 723.913 613.357 720.376C613.4 716.026 613.398 711.678 613.386 707.328C613.378 704.556 613.369 701.784 613.368 699.011L613.375 697.977C613.404 693.61 613.433 689.245 613.333 684.879C611.961 667.248 603.088 653.44 590.021 642.004C588.787 640.967 587.557 639.926 586.333 638.879C584.648 637.133 583.051 635.67 581.091 634.222L578.458 632.379C577.676 631.803 576.893 631.228 576.11 630.653C574.851 629.728 573.592 628.803 572.333 627.879C569.314 625.795 566.357 623.673 563.493 621.38C559.489 617.794 558.465 615.075 558.146 609.566C558.24 607.338 558.304 605.108 558.333 602.879C556.585 596.075 552.819 588.773 547.353 584.234C545.665 583.138 543.997 582.01 542.333 580.879C541.167 575.336 541.166 575.335 541.168 569.623L541.16 567.16C541.146 565.363 541.132 563.567 541.119 561.77C541.103 558.84 541.087 555.91 541.064 552.98C540.993 544.583 540.928 536.186 540.876 527.788C540.844 522.546 540.809 517.304 540.764 512.061C540.745 510.066 540.728 508.07 540.712 506.074C540.7 503.214 540.687 500.354 540.662 497.494L540.636 494.856C540.627 481.828 535.771 468.839 526.732 459.25L525.333 457.879L522.833 455.379C521.553 454.098 520.275 452.809 519.119 451.416C516.244 447.884 513.185 444.734 509.812 441.673C506.145 438.387 502.518 435.068 498.925 431.701C496.964 429.856 495.002 428.013 493.021 426.191C488.108 421.863 483.308 417.49 478.72 412.816C470.457 403.354 470.271 394.021 471.02 381.903C471.625 373.686 469.612 367.286 464.333 360.879C459.573 356.585 455.117 355.424 448.833 355.031C438.872 354.424 431.397 350.452 423.997 343.769C415.05 334.39 412.137 322.312 412.075 309.594L412.093 306.982C412.087 303.977 412.085 300.973 412.095 297.968C412.103 295.772 412.106 293.577 412.107 291.382C412.104 285.391 412.108 279.401 412.122 273.411C412.136 267.051 412.142 260.69 412.145 254.329C412.149 243 412.16 231.67 412.179 220.34C412.197 209.306 412.213 198.271 412.222 187.236L412.231 174.888C412.252 145.885 412.288 116.882 412.333 87.8786C415.777 86.4469 419.112 84.9933 422.423 83.2731L425.271 81.6911L428.173 80.0856L430.333 78.8786C430.289 103.792 430.253 128.706 430.233 153.619C430.223 165.738 430.212 177.856 430.189 189.975C430.169 200.614 430.153 211.252 430.146 221.891V223.587C430.144 228.648 430.142 233.709 430.13 238.771C430.116 244.142 430.105 249.513 430.105 254.884C430.106 256.876 430.107 258.868 430.106 260.86C430.103 261.695 430.099 262.531 430.094 263.366C430.064 269.205 430.034 275.047 430.333 280.879C431.752 294.763 435.619 309.742 446.833 319.066C448.752 320.553 450.414 321.967 452.048 323.769C454.975 327.247 457.857 330.438 461.333 333.379C464.118 335.734 466.536 338.159 468.896 340.941C470.433 342.83 471.979 344.572 473.822 346.167C477.435 349.185 480.877 352.307 484.21 355.631L485.924 357.355C487.875 359.306 489.826 361.258 491.773 363.213C493.162 364.607 494.552 366 495.942 367.393C499.607 371.06 503.27 374.729 506.93 378.4C510.702 382.184 514.477 385.965 518.252 389.745C524.503 396.005 530.754 402.267 537.002 408.531L537.934 409.467C539.734 411.271 541.533 413.075 543.333 414.879C545.001 416.544 546.668 418.211 548.333 419.879C550.46 422.062 552.572 424.226 554.888 426.211C559.07 429.709 562.992 433.379 566.806 437.277L569.333 439.879C586.788 457.211 590.579 473.198 590.699 497.361C590.708 499.125 590.72 500.889 590.736 502.652C590.783 507.315 590.824 511.977 590.856 516.639C590.908 524.246 590.968 531.852 591.039 539.458C591.064 542.134 591.087 544.81 591.103 547.486C591.114 549.169 591.125 550.851 591.139 552.534L591.16 554.892C591.165 556.308 591.174 557.723 591.188 559.138C591.886 577.15 601.351 589.455 613.775 601.461C614.247 601.913 614.718 602.365 615.19 602.818C615.905 603.504 616.619 604.191 617.333 604.879L617.859 605.408C619.964 607.527 622.055 609.631 624.29 611.617C627.683 614.495 630.98 617.439 634.146 620.566C635.525 622.02 636.923 623.456 638.333 624.879C640.926 627.022 643.423 629.162 645.809 631.53C648.074 635.813 649.225 637.989 649.727 640.305C650.245 642.697 650.071 645.239 649.718 650.405C649.417 654.488 649.293 657.689 650.157 661.734C654.457 673.233 660.632 680.507 671.404 686.367L674.333 687.879C678.216 690.033 681.445 690.792 685.888 691.226C697.626 691.834 709.372 689.404 718.599 681.656C726.969 673.079 732.471 662.64 732.816 650.603L732.833 648.066C732.871 643.34 732.602 639.611 730.958 635.136L729.333 631.879C728.086 629.077 726.747 626.41 725.255 623.73C719.109 614.611 710.78 608.706 700.095 606.394C688.62 604.682 678.756 606.983 669.146 613.191C667.938 614.092 667.358 614.524 666.729 614.866C666.149 615.182 665.528 615.42 664.333 615.879C661.383 614.647 659.897 614.026 658.589 613.142C657.262 612.246 656.118 611.078 653.814 608.725L651.724 606.597C650.231 605.101 648.739 603.603 647.247 602.105C644.923 599.75 642.599 597.394 640.264 595.049C636.547 591.323 632.844 587.586 629.171 583.816C627.378 581.97 625.585 580.127 623.755 578.318L622.355 576.941L619.943 574.472C616.339 567.826 614.507 564.445 613.604 560.833C612.671 557.094 612.734 553.107 612.861 544.993C612.858 543.481 612.849 541.969 612.835 540.457C612.791 536.433 612.756 532.409 612.735 528.386C612.697 521.104 612.633 513.822 612.566 506.541L612.54 503.73C612.463 495.004 612.386 486.281 612.015 477.562L611.892 475.015C611.465 465.831 610.024 457.054 605.54 448.925L604.333 446.879C598.528 436.509 590.987 428.824 582.021 421.129C579.524 419.003 577.362 416.842 575.271 414.316C573.804 412.532 572.381 410.921 570.654 409.386C567.391 406.704 564.474 404.02 561.708 400.816C558.599 397.176 555.452 393.682 551.797 390.571C546.171 385.805 540.986 380.642 535.789 375.422C533.947 373.567 532.105 371.712 530.259 369.86C526.291 365.883 522.327 361.902 518.364 357.919L517.947 357.5C513.409 352.94 508.872 348.379 504.33 343.824C502.444 341.933 500.558 340.041 498.676 338.146C498.278 337.745 497.88 337.344 497.482 336.944C492.663 332.086 487.852 327.237 482.693 322.734C476.056 317.118 469.959 310.879 464.333 304.254C463.479 303.208 463.092 302.733 462.682 302.28C462.341 301.903 461.985 301.541 461.333 300.879L458.333 299.879L457.277 297.675L456.333 294.879C454.048 286.214 452.901 281.867 452.346 277.447C451.788 272.998 451.828 268.474 451.91 259.397C451.932 257.036 451.946 254.676 451.954 252.315C451.964 246.103 451.988 239.891 452.031 233.68C452.077 227.252 452.105 220.825 452.126 214.398C452.169 200.558 452.239 186.718 452.333 172.879C453.396 173.349 453.894 173.569 454.331 173.877C454.715 174.148 455.052 174.487 455.686 175.124L457.251 176.714L459.031 178.515C460.328 179.835 461.628 181.153 462.931 182.468C465.026 184.581 467.118 186.698 469.208 188.816C471.291 190.931 473.374 193.046 475.464 195.154L477.45 197.156L479.357 199.104L481.157 200.913C482.909 202.69 484.325 203.874 486.532 205.064L488.333 205.879V207.879L490.068 209.238C491.215 210.028 491.796 210.428 492.333 210.879C492.883 211.34 493.389 211.854 494.411 212.894C498.04 216.627 501.682 220.25 505.646 223.629C507.654 225.295 509.524 227.061 511.414 228.861C513.733 232.507 513.823 234.811 513.888 239.049L513.872 241.859C513.909 244.884 513.943 247.908 513.952 250.933C513.958 254.038 513.975 257.143 513.997 260.248C514.019 262.243 514.04 264.239 514.06 266.234C514.043 281.307 517.004 293.336 527.771 304.379C529.159 305.693 529.764 306.266 530.331 306.876C530.769 307.347 531.184 307.84 531.919 308.715C534.279 311.502 536.6 314.216 539.314 316.668C542.086 319.016 544.811 321.362 547.396 323.918L551.083 327.886C552.674 330.422 552.63 331.929 552.333 334.879L552.193 335.385C551.503 337.885 550.828 340.329 550.333 342.879C549.717 353.1 551.008 362.773 557.06 371.316C564.739 380.372 575.485 387.719 587.531 389.137C601.322 390.06 611.556 387.999 622.333 378.879C622.428 378.737 622.52 378.599 622.61 378.465C624.594 375.5 625.576 374.031 629.32 373.277L632.846 373.311C634.891 373.309 636.934 373.314 638.979 373.35C640.438 373.377 641.897 373.395 643.357 373.404C647.183 373.417 651.008 373.447 654.833 373.501C658.797 373.558 662.76 373.593 666.724 373.62C675.261 373.674 683.797 373.763 692.333 373.879V377.879C694.625 385.804 698.599 392.352 704.583 398.004L707.333 399.879C718.373 407.531 729.307 409.905 742.599 408.668C751.816 407.176 761.043 401.642 766.732 394.257L768.333 391.879C773.413 384.56 775.717 378.443 776.005 369.531L776.021 366.629C776.12 353.807 771.198 342.133 762.337 332.769C752.002 323.894 739.336 322.976 726.333 323.879C716.69 325.664 707.651 330.367 701.333 337.879C700.116 341.207 698.995 344.196 697.231 347.283C691.956 349.617 689.245 350.816 686.411 351.326C683.418 351.864 680.286 351.632 673.847 351.156C671.635 351.096 669.423 351.056 667.211 351.035H667.099C663.921 351.021 660.742 351.008 657.564 350.984C651.006 350.843 644.65 350.916 638.126 351.656L636.333 351.879C636.333 345.019 634.583 337.353 632.267 330.914C627.05 320.015 619.574 311.357 608.396 306.504C599.671 303.555 586.792 303.053 578.271 306.781C574.687 308.696 571.145 310.449 567.333 311.879L563.333 307.879L562.815 307.348C560.089 304.558 557.372 301.777 554.419 299.222C551.487 296.746 548.661 294.194 545.896 291.531L543.458 289.004C537.263 282.636 537.098 275.119 537.157 266.623L537.208 263.816C537.239 260.503 537.274 257.191 537.333 253.879C550.712 262.408 562.885 266.312 578.874 266.35C580.327 266.354 581.781 266.362 583.234 266.376C587.067 266.421 590.9 266.456 594.734 266.477C601.004 266.511 607.273 266.565 613.543 266.626C615.747 266.648 617.951 266.668 620.156 266.679L622.287 266.69L626.244 266.721C626.768 266.724 627.311 266.695 627.857 266.666C629.856 266.561 631.907 266.452 633.333 267.879C637.398 279.858 644.191 288.126 654.556 295.449C663.468 300.851 673.995 303.238 684.243 301.34C697.195 298.419 706.446 291.719 713.79 280.609C719.661 270.219 721.177 258.794 718.142 247.218C714.06 235.408 707.581 225.303 696.333 219.379C683.209 213.49 671.594 213.789 658.107 218.687C647.657 223.371 640.501 232.066 636.259 242.528L635.333 244.879C627.525 244.802 619.716 244.717 611.907 244.621L610.958 244.609C607.286 244.563 603.614 244.516 599.941 244.479C596.042 244.442 592.142 244.402 588.243 244.351C586.752 244.331 585.261 244.311 583.771 244.293C560.858 244.11 548.46 235.949 532.611 220.168C531.897 219.45 531.407 218.957 530.916 218.465C529.842 217.387 528.766 216.311 525.333 212.879C523.018 210.625 520.756 208.366 518.638 205.925C516.164 203.034 513.805 200.278 510.896 197.816C505.755 193.929 501.009 189.798 496.833 184.879C494.496 182.116 492.096 179.716 489.333 177.379C487.27 175.633 485.366 173.915 483.552 171.91C480.638 168.466 477.784 165.298 474.333 162.379C471.571 160.041 469.171 157.641 466.833 154.879C464.43 152.028 461.937 149.591 459.083 147.191C454.993 143.894 452.595 140.89 451.901 135.557L451.822 131.828C451.766 129.78 451.713 127.732 451.68 125.684C451.657 124.263 451.629 122.842 451.596 121.421C451.49 117.241 451.402 113.06 451.333 108.879C464.732 116.384 475.945 121.717 491.458 122.379C494.145 122.421 496.652 122.567 499.333 122.879C501.861 126.67 504.391 130.392 507.333 133.879C513.657 139.053 521.094 142.115 529.271 142.191C537.03 141.979 543.694 138.517 549.146 133.066L551.333 129.879C554.756 125.071 555.648 120.907 555.833 115.004C555.524 105.669 552.859 98.3818 546.368 91.5739C539.94 86.219 533.034 85.4388 524.9 85.6403C518.983 86.1896 513.261 88.8341 509.197 93.1442C507.748 94.7984 506.261 96.4204 504.739 98.0075C501.207 100.755 498.583 100.708 494.232 100.312L491.333 99.8786C487.261 99.4301 483.316 98.8504 479.333 97.8786C470.537 94.9358 460.109 87.7907 455.379 79.7582L454.333 77.8786C450.305 70.7513 449.341 63.4773 448.487 55.4494C447.232 43.4463 445.915 32.6313 439.697 22.0661L438.333 19.8786ZM126.486 637.991L125.486 634.991C115.344 629.403 105.261 631.501 97.4857 639.991C92.8207 646.489 92.8506 652.455 93.9232 660.116C94.8394 661.802 95.4442 662.914 96.224 663.887C97.7391 665.776 99.9149 667.135 106.318 671.135C111.087 673.582 115.465 673.376 120.486 671.991C127.097 669.289 131.624 664.516 134.486 657.991C135.312 652.907 134.87 648.513 132.365 643.948L131.048 641.803C130.328 640.61 130.004 640.074 129.65 639.559C129.36 639.137 129.05 638.73 128.486 637.991H126.486Z" fill="#F2F6F7"/>
<path fill-rule="evenodd" clip-rule="evenodd" d="M276.083 434.691L278.427 434.654C285.183 434.637 291.686 435.355 297.458 439.191L299.279 440.367C304.775 444.411 308.34 447.774 311.583 453.754L312.607 455.531C318.269 465.674 319.212 478.039 316.208 489.254C312.279 500.094 305.559 508.713 295.333 514.254C289.564 516.836 283.971 517.924 277.673 517.897L275.212 517.889L273.333 517.879L273.36 520.708C273.442 529.562 273.501 538.417 273.54 547.272C273.561 551.823 273.589 556.374 273.635 560.924C273.679 565.327 273.702 569.729 273.713 574.132C273.72 575.801 273.734 577.47 273.756 579.138C273.981 597.08 270.53 614.197 257.724 627.597C252.744 632.349 247.367 636.235 241.583 639.941C235.787 643.755 231.844 647.872 230.333 654.879L229.763 656.976C229.316 659.745 229.297 661.251 230.333 663.879C232.821 665.814 235.364 667.349 238.126 668.859C247.422 673.974 253.042 681.727 256.236 691.695C259.687 704.15 258.985 714.782 253.013 726.461C246.925 736.224 238.104 742.636 226.919 745.496C212.979 747.56 201.772 744.86 190.333 736.879C181.658 730.372 178.013 723.905 175.81 713.347C174.09 700.828 177.4 689.078 184.72 678.871C188.05 674.758 191.206 671.592 196.306 669.883C199.996 668.587 202.411 667.51 205.333 664.879C206.792 661.319 207.331 657.592 207.877 653.816C207.931 653.443 207.985 653.071 208.04 652.697C209.7 641.427 213.703 631.878 222.861 624.558C227.857 621.164 233.132 618.374 238.599 615.82C240.628 614.719 241.114 613.621 241.933 611.77L241.934 611.768C242.058 611.489 242.188 611.194 242.333 610.879C243.136 609.809 243.95 608.747 244.771 607.691C250.386 599.973 251.412 590.692 251.59 581.38L251.634 579.179C251.759 572.512 251.829 565.844 251.882 559.176C251.917 554.708 251.971 550.242 252.067 545.774C252.16 541.436 252.209 537.099 252.226 532.76C252.24 531.115 252.27 529.471 252.315 527.827C252.469 522.169 252.546 519.363 251.862 516.756C251.19 514.191 249.783 511.819 246.991 507.112L244.606 504.955C237.817 498.751 234.679 490.418 234.118 481.433C233.789 468.406 236.024 458.168 244.333 447.879C253.591 438.758 263.3 434.702 276.083 434.691ZM283.333 455.879C289.095 458.212 292.765 462.913 295.486 468.382C297.233 473.528 297.374 478.784 295.634 483.957C292.81 489.437 287.999 493.537 282.333 495.879C274.525 497.069 268.973 495.861 262.392 491.582C258.049 487.988 256.436 484.393 255.333 478.879C255.321 472.652 256.801 466.478 261.24 461.922C268.393 455.559 273.678 454.797 283.333 455.879ZM236.708 702.777C235.81 695.832 231.762 691.623 226.474 687.265C220.574 683.444 214.674 684.837 208.333 686.879C202.684 690.644 199.674 695.073 197.775 701.507C196.819 706.639 197.266 711.042 199.896 715.566C205.621 720.997 209.835 724.655 218.013 724.98C225.484 724.653 229.802 720.61 234.708 715.316C236.763 710.968 236.896 707.543 236.708 702.777Z" fill="#F2F6F7"/>
<path d="M336.646 863.066C341.48 866.326 345.01 871.27 347.021 876.754C348.01 883.478 347.298 888.362 343.333 893.879C339.15 898.241 334.8 900.817 328.7 901.113C322.781 900.527 317.905 898.156 313.333 894.441C308.666 888.461 308.545 882.214 309.333 874.879C310.941 869.995 314.039 866.639 318.333 863.879C324.332 861.152 330.47 860.852 336.646 863.066Z" fill="#F2F6F7"/>
<path d="M664.333 414.879C668.311 419.345 670.67 423.987 670.958 430.004C670.514 436.034 668.816 440.468 664.45 444.707C659.518 448.49 655.249 449.767 649.048 449.402C643.203 448.275 638.899 445.522 634.833 441.254C631.442 435.885 631.655 430.03 632.333 423.879C634.025 419.168 636.626 416.027 640.896 413.441C648.975 409.769 656.857 409.623 664.333 414.879Z" fill="#F2F6F7"/>
<path d="M69.3332 563.879C74.7933 566.219 78.13 570.422 80.3332 575.879C81.4274 581.873 80.5506 586.915 77.5402 592.191C74.6196 596.274 70.2604 599.347 65.2902 600.25C58.2503 600.468 52.9058 598.053 47.6496 593.382C44.9202 590.264 44.4123 586.577 43.9582 582.566C44.5882 576.371 46.6259 570.977 51.4582 566.879C57.1534 562.917 62.5256 563.306 69.3332 563.879Z" fill="#F2F6F7"/>
<path d="M750.333 568.879C754.802 572.206 757.814 576.414 758.654 582.015C758.933 587.506 758.002 591.691 754.333 595.879C750.822 598.963 748.146 599.852 743.458 600.004C738.425 599.05 734.128 596.241 730.333 592.879C727.326 588.339 727.711 583.114 728.333 577.879C730.324 573.897 732.494 571.158 736.333 568.879C741.021 567.376 745.585 567.761 750.333 568.879Z" fill="#F2F6F7"/>
<path d="M239.083 779.441C242.747 783.41 244.943 787.535 245.833 792.879C244.902 798.467 242.797 802.517 238.646 806.379C234.328 808.334 230.992 808.791 226.333 807.879C222.275 806.16 219.253 803.914 216.333 800.629C214.46 795.477 214.676 790.777 216.458 785.629C219.065 781.805 221.939 778.996 226.208 777.004C231.043 776.719 234.895 777.061 239.083 779.441Z" fill="#F2F6F7"/>
<path d="M191.333 290.879C195.687 293.287 197.639 296.24 199.333 300.879C199.914 305.494 199.744 309.824 197.333 313.879C194.201 316.967 191.211 319.604 186.771 320.254C180.983 319.622 176.142 316.907 172.271 312.566C170.513 307.526 170.692 302.981 172.583 298.066C176.697 290.573 183.413 289.979 191.333 290.879Z" fill="#F2F6F7"/>
<path d="M673.333 148.879C676.271 151.066 676.271 151.066 678.333 153.879C678.931 154.662 679.529 155.446 680.146 156.254C681.734 159.766 681.795 162.051 681.333 165.879C679.201 171.121 676.872 174.126 671.618 176.414C667.133 177.326 663.349 175.838 659.333 173.879C655.739 171.311 654.136 169.283 653.333 165.004C652.978 159.63 654.898 155.583 658.333 151.504C662.618 148.022 668.065 148.128 673.333 148.879Z" fill="#F2F6F7"/>
<path d="M140.333 148.879C142.842 150.633 143.695 152.183 145.333 154.879C146.323 156.364 146.323 156.364 147.333 157.879C148.061 162.794 147.838 166.812 145.708 171.316C143.026 174.21 141.07 175.608 137.333 176.879C132.255 176.768 127.557 174.637 123.333 171.879C120.21 167.193 120.499 162.355 121.333 156.879C125.661 149.033 131.761 147.541 140.333 148.879Z" fill="#F2F6F7"/>
<path d="M198.333 190.879C201.923 194.408 203.636 198.447 204.021 203.441C203.76 207.874 202.057 210.395 198.974 213.5C195.599 216.336 193.344 216.879 188.958 216.879C184.386 215.617 181.455 213.424 178.333 209.879C177.09 206.15 176.805 202.751 177.333 198.879C179.587 194.454 181.851 192.008 186.333 189.879C190.603 188.534 194.322 188.893 198.333 190.879Z" fill="#F2F6F7"/>
<path d="M294.333 676.879C296.833 679.004 296.833 679.004 298.333 681.879C299.23 683.302 299.23 683.302 300.146 684.754C301.672 688.77 301.562 690.759 300.333 694.879C298.344 698.329 296.173 701.101 292.439 702.679C287.711 703.602 284.153 702.481 280.032 700.109C277.529 698.296 276.412 696.779 275.333 693.879C274.763 688.648 275.484 685.3 278.333 680.879C282.604 675.807 288.137 675.777 294.333 676.879Z" fill="#F2F6F7"/>
<path d="M548.333 175.879C552.035 178.939 553.832 182.622 554.864 187.269C555.139 191.301 554.614 194.077 552.146 197.316C548.518 200.621 546.394 201.968 541.458 201.754C537.142 200.545 532.653 198.963 530.154 195.015C528.733 191.315 528.78 187.774 529.333 183.879C533.348 175.993 539.801 173.884 548.333 175.879Z" fill="#F2F6F7"/>
<path d="M651.333 695.879C653.572 697.692 654.695 699.421 656.333 701.879C657.014 702.807 657.014 702.807 657.708 703.754C658.727 707.217 658.284 710.463 657.333 713.879C655.223 717.114 653.552 718.732 650.333 720.879C646.443 721.595 642.803 721.611 639.224 719.828C636.759 718.102 634.698 716.607 633.333 713.879C632.004 703.786 632.004 703.786 634.79 699.789C639.844 695.437 644.743 693.768 651.333 695.879Z" fill="#F2F6F7"/>
<path d="M197.333 397.879C201.612 400.351 203.695 403.238 205.333 407.879C205.236 413.333 203.695 416.627 200.333 420.879C196.264 423.591 193.109 423.623 188.333 422.879C184.543 421.408 182.094 419.501 180.353 415.789C179.255 411.895 179.004 408.817 180.458 405.004C184.374 398.476 189.875 396.842 197.333 397.879Z" fill="#F2F6F7"/>
<path d="M92.3332 432.879C95.7832 436.305 97.1572 439.744 97.8957 444.504C97.2233 448.538 95.9022 450.722 93.3332 453.879C89.0404 456.74 85.3668 456.71 80.3332 455.879C76.3921 454.133 73.2098 451.982 71.5129 447.91C70.6543 443.16 71.682 439.95 74.3332 435.879C78.7426 429.999 86.1408 429.908 92.3332 432.879Z" fill="#F2F6F7"/>
<path d="M488.333 256.879C490.743 258.658 491.694 260.267 493.333 262.879C494.323 264.364 494.323 264.364 495.333 265.879C495.797 270.886 495.456 273.894 492.333 277.879C489.339 281.044 487.827 281.815 483.458 282.379C478.869 282.135 476.041 280.548 472.333 277.879C469.89 274.904 469.971 271.619 470.083 267.836C470.599 263.794 472.768 261.512 475.396 258.566C479.66 256.117 483.535 255.813 488.333 256.879Z" fill="#F2F6F7"/>
<path d="M721.021 431.941C724.968 435.249 727.004 438.861 727.833 443.941C727.05 448.545 724.714 451.45 721.521 454.754C718.291 456.415 715.919 456.249 712.333 455.879C708.726 454.422 705.722 452.983 703.333 449.879C702.489 444.542 702.422 439.507 705.083 434.754C710.07 430.598 714.706 429.445 721.021 431.941Z" fill="#F2F6F7"/>
<path d="M503.333 519.879C507.033 524.3 507.997 528.061 507.724 533.797C506.971 537.811 504.69 539.928 501.458 542.191C498.394 543.182 496.561 543.375 493.333 542.879C489.631 540.627 486.393 537.938 483.333 534.879C482.596 530.515 482.777 526.903 484.896 523.004C490.663 517.975 496.369 516.504 503.333 519.879Z" fill="#F2F6F7"/>
</g>
<defs>
<clipPath id="clip0_14_2">
<rect width="799" height="997" fill="white"/>
</clipPath>
</defs>
</svg>
