<svg width="16" height="16" viewBox="0 0 16 16" fill="none" xmlns="http://www.w3.org/2000/svg" class="rtl:rotate-180"><path d="M3.241 14.528c.636.157 1.773-.328 4.046-1.3l2.081-.89c3.181-1.359 4.772-2.038 5.254-2.995.418-.83.418-1.81 0-2.64-.482-.956-2.073-1.636-5.254-2.996l-2.13-.91c-2.247-.96-3.37-1.44-3.994-1.295A1.96 1.96 0 0 0 1.74 3.22c-.061.637.564 1.687 1.815 3.787.1.166.173.29.227.393H8a.6.6 0 0 1 0 1.2H3.79c-.053.105-.126.23-.225.4-1.249 2.14-1.873 3.21-1.796 3.86a1.955 1.955 0 0 0 1.472 1.668" fill="#d6daff29"></path></svg>
