<svg xmlns="http://www.w3.org/2000/svg" width="16" height="16" fill="none" viewBox="0 0 60 60"><path fill="white" fill-rule="evenodd" d="M6 15.75h21.998c1.025-4.579 5.114-8 10.002-8s8.977 3.421 10.002 8H55a2.25 2.25 0 0 1 0 4.5h-6.998c-1.025 4.579-5.114 8-10.002 8s-8.977-3.421-10.002-8H6a2.25 2.25 0 0 1 0-4.5m32-3.5a5.75 5.75 0 1 0 0 11.5 5.75 5.75 0 0 0 0-11.5m17 32a2.25 2.25 0 0 0 0-4.5H32.002c-1.025-4.579-5.114-8-10.002-8s-8.977 3.421-10.002 8H6a2.25 2.25 0 0 0 0 4.5h5.998c1.025 4.579 5.114 8 10.002 8s8.977-3.421 10.002-8zM27.75 42a5.75 5.75 0 1 0-11.5 0 5.75 5.75 0 0 0 11.5 0" clip-rule="evenodd"></path></svg>
